<?xml version="1.0" standalone="no"?><!DOCTYPE svg PUBLIC "-//W3C//DTD SVG 1.1//EN" "http://www.w3.org/Graphics/SVG/1.1/DTD/svg11.dtd"><svg xmlns:xlink="http://www.w3.org/1999/xlink" xmlns="http://www.w3.org/2000/svg" version="1.1" width="800" height="300"><defs><clipPath id="highcharts-15"><rect rx="0" ry="0" fill="none" x="0" y="0" width="9999" height="300" stroke-width="0.000001"></rect></clipPath><clipPath id="highcharts-16"><rect fill="none" x="0" y="0" width="661" height="232"></rect></clipPath></defs><rect rx="5" ry="5" fill="#FFFFFF" x="0" y="0" width="800" height="300" stroke-width="0.000001"></rect><g class="highcharts-grid" ></g><g class="highcharts-grid" ><path fill="none" d="M 56 214.5 L 717 214.5" stroke="#C0C0C0" stroke-width="1" ></path><path fill="none" d="M 56 156.5 L 717 156.5" stroke="#C0C0C0" stroke-width="1" ></path><path fill="none" d="M 56 98.5 L 717 98.5" stroke="#C0C0C0" stroke-width="1" ></path><path fill="none" d="M 56 40.5 L 717 40.5" stroke="#C0C0C0" stroke-width="1" ></path><path fill="none" d="M 56 272.5 L 717 272.5" stroke="#C0C0C0" stroke-width="1" ></path></g><g class="highcharts-axis" ><path fill="none" d="M 319.5 272 L 319.5 277" stroke="#C0D0E0" stroke-width="1"></path><path fill="none" d="M 452.5 272 L 452.5 277" stroke="#C0D0E0" stroke-width="1"></path><path fill="none" d="M 584.5 272 L 584.5 277" stroke="#C0D0E0" stroke-width="1"></path><path fill="none" d="M 716.5 272 L 716.5 277" stroke="#C0D0E0" stroke-width="1"></path><path fill="none" d="M 187.5 272 L 187.5 277" stroke="#C0D0E0" stroke-width="1"></path><path fill="none" d="M 56 272.5 L 717 272.5" stroke="#C0D0E0" stroke-width="1"  visibility="visible"></path></g><g class="highcharts-axis" ><text x="24.078125" y="156" style="font-family:'lucida grande', 'lucida sans unicode', verdana, arial, helvetica, sans-serif;font-size:12px;color:#6d869f;font-weight:bold;fill:#6d869f;"  transform="rotate(270 24.078125 156)" text-anchor="middle" visibility="visible"><tspan x="24.078125">温度 (°C)</tspan></text></g><g class="highcharts-series-group" ><g class="highcharts-series" visibility="visible"  transform="translate(56,40)" clip-path="url(#highcharts-16)"><path fill="none" d="M 66.1 208.8 C 66.1 208.8 145.42 198.36 198.29999999999998 162.4 C 251.18 126.44 277.62 29 330.5 29 C 383.38 29 409.82 220.4 462.69999999999993 220.4 C 515.5799999999999 220.4 594.9 140.9 594.9 140.9" stroke="black" stroke-width="5"   stroke-opacity="0.049999999999999996" transform="translate(1, 1)"></path><path fill="none" d="M 66.1 208.8 C 66.1 208.8 145.42 198.36 198.29999999999998 162.4 C 251.18 126.44 277.62 29 330.5 29 C 383.38 29 409.82 220.4 462.69999999999993 220.4 C 515.5799999999999 220.4 594.9 140.9 594.9 140.9" stroke="black" stroke-width="3"   stroke-opacity="0.09999999999999999" transform="translate(1, 1)"></path><path fill="none" d="M 66.1 208.8 C 66.1 208.8 145.42 198.36 198.29999999999998 162.4 C 251.18 126.44 277.62 29 330.5 29 C 383.38 29 409.82 220.4 462.69999999999993 220.4 C 515.5799999999999 220.4 594.9 140.9 594.9 140.9" stroke="black" stroke-width="1"   stroke-opacity="0.15" transform="translate(1, 1)"></path><path fill="none" d="M 66.1 208.8 C 66.1 208.8 145.42 198.36 198.29999999999998 162.4 C 251.18 126.44 277.62 29 330.5 29 C 383.38 29 409.82 220.4 462.69999999999993 220.4 C 515.5799999999999 220.4 594.9 140.9 594.9 140.9" stroke="#4572A7" stroke-width="2" ></path></g><g class="highcharts-markers" visibility="visible"  transform="translate(56,40)" clip-path="none"><path fill="#4572A7" d="M 594.9 136.9 C 600.228 136.9 600.228 144.9 594.9 144.9 C 589.572 144.9 589.572 136.9 594.9 136.9 Z" stroke="#FFFFFF" stroke-width="0.000001"></path><path fill="#4572A7" d="M 462.69999999999993 216.4 C 468.0279999999999 216.4 468.0279999999999 224.4 462.69999999999993 224.4 C 457.37199999999996 224.4 457.37199999999996 216.4 462.69999999999993 216.4 Z" stroke="#FFFFFF" stroke-width="0.000001"></path><path fill="#4572A7" d="M 330.5 25 C 335.828 25 335.828 33 330.5 33 C 325.172 33 325.172 25 330.5 25 Z" stroke="#FFFFFF" stroke-width="0.000001"></path><path fill="#4572A7" d="M 198.29999999999998 158.4 C 203.628 158.4 203.628 166.4 198.29999999999998 166.4 C 192.97199999999998 166.4 192.97199999999998 158.4 198.29999999999998 158.4 Z" stroke="#FFFFFF" stroke-width="0.000001"></path><path fill="#4572A7" d="M 66.1 204.8 C 71.428 204.8 71.428 212.8 66.1 212.8 C 60.77199999999999 212.8 60.77199999999999 204.8 66.1 204.8 Z" stroke="#FFFFFF" stroke-width="0.000001"></path></g><g class="highcharts-series" visibility="visible"  transform="translate(56,40)" clip-path="url(#highcharts-16)"><path fill="none" d="M 0 0" stroke="black" stroke-width="5"   stroke-opacity="0.049999999999999996" transform="translate(1, 1)"></path><path fill="none" d="M 0 0" stroke="black" stroke-width="3"   stroke-opacity="0.09999999999999999" transform="translate(1, 1)"></path><path fill="none" d="M 0 0" stroke="black" stroke-width="1"   stroke-opacity="0.15" transform="translate(1, 1)"></path><path fill="none" d="M 0 0" stroke="#AA4643" stroke-width="2" ></path></g><g class="highcharts-markers" visibility="visible"  transform="translate(56,40)" clip-path="none"><path fill="#AA4643" d="M 66.1 135.2 L 70.1 139.2 66.1 143.2 62.099999999999994 139.2 Z" stroke="#FFFFFF" stroke-width="0.000001"></path></g></g><text x="400" y="25" style="font-family:'lucida grande', 'lucida sans unicode', verdana, arial, helvetica, sans-serif;font-size:16px;color:#3e576f;fill:#3e576f;" text-anchor="middle" class="highcharts-title" ><tspan x="400">本月温度情况</tspan></text><g class="highcharts-legend"  transform="translate(727,110)"><g  clip-path="url(#highcharts-15)"><g><g class="highcharts-legend-item"  transform="translate(8,3)"><path fill="none" d="M 0 11 L 16 11" stroke-width="2" stroke="#4572A7"></path><path fill="#4572A7" d="M 8 7 C 13.328 7 13.328 15 8 15 C 2.6719999999999997 15 2.6719999999999997 7 8 7 Z" stroke="#FFFFFF" stroke-width="0.000001"></path><text x="21" y="15" style="font-family:'lucida grande', 'lucida sans unicode', verdana, arial, helvetica, sans-serif;font-size:12px;cursor:pointer;color:#3e576f;fill:#3e576f;" text-anchor="start" ><tspan x="21">本月</tspan></text></g><g class="highcharts-legend-item"  transform="translate(8,17.140625)"><path fill="none" d="M 0 11 L 16 11" stroke-width="2" stroke="#AA4643"></path><path fill="#AA4643" d="M 8 7 L 12 11 8 15 4 11 Z" stroke="#FFFFFF" stroke-width="0.000001"></path><text x="21" y="15" style="font-family:'lucida grande', 'lucida sans unicode', verdana, arial, helvetica, sans-serif;font-size:12px;cursor:pointer;color:#3e576f;fill:#3e576f;" text-anchor="start" ><tspan x="21">对比</tspan></text></g></g></g></g><g class="highcharts-axis-labels" ><text x="122.1" y="286" style="font-family:'lucida grande', 'lucida sans unicode', verdana, arial, helvetica, sans-serif;font-size:11px;color:#666;line-height:14px;fill:#666;" text-anchor="middle" visibility="visible"><tspan x="122.1">0</tspan></text><text x="254.29999999999998" y="286" style="font-family:'lucida grande', 'lucida sans unicode', verdana, arial, helvetica, sans-serif;font-size:11px;color:#666;line-height:14px;fill:#666;" text-anchor="middle" visibility="visible"><tspan x="254.29999999999998">1</tspan></text><text x="386.5" y="286" style="font-family:'lucida grande', 'lucida sans unicode', verdana, arial, helvetica, sans-serif;font-size:11px;color:#666;line-height:14px;fill:#666;" text-anchor="middle" visibility="visible"><tspan x="386.5">2</tspan></text><text x="518.6999999999999" y="286" style="font-family:'lucida grande', 'lucida sans unicode', verdana, arial, helvetica, sans-serif;font-size:11px;color:#666;line-height:14px;fill:#666;" text-anchor="middle" visibility="visible"><tspan x="518.6999999999999">3</tspan></text><text x="650.9" y="286" style="font-family:'lucida grande', 'lucida sans unicode', verdana, arial, helvetica, sans-serif;font-size:11px;color:#666;line-height:14px;fill:#666;" text-anchor="middle" visibility="visible"><tspan x="650.9">4</tspan></text></g><g class="highcharts-axis-labels" ><text x="48" y="278.115625" style="font-family:'lucida grande', 'lucida sans unicode', verdana, arial, helvetica, sans-serif;font-size:11px;width:311px;color:#666;line-height:14px;fill:#666;" text-anchor="end" visibility="visible"><tspan x="48">10</tspan></text><text x="48" y="220.115625" style="font-family:'lucida grande', 'lucida sans unicode', verdana, arial, helvetica, sans-serif;font-size:11px;width:311px;color:#666;line-height:14px;fill:#666;" text-anchor="end" visibility="visible"><tspan x="48">20</tspan></text><text x="48" y="162.115625" style="font-family:'lucida grande', 'lucida sans unicode', verdana, arial, helvetica, sans-serif;font-size:11px;width:311px;color:#666;line-height:14px;fill:#666;" text-anchor="end" visibility="visible"><tspan x="48">30</tspan></text><text x="48" y="104.115625" style="font-family:'lucida grande', 'lucida sans unicode', verdana, arial, helvetica, sans-serif;font-size:11px;width:311px;color:#666;line-height:14px;fill:#666;" text-anchor="end" visibility="visible"><tspan x="48">40</tspan></text><text x="48" y="46.115625" style="font-family:'lucida grande', 'lucida sans unicode', verdana, arial, helvetica, sans-serif;font-size:11px;width:311px;color:#666;line-height:14px;fill:#666;" text-anchor="end" visibility="visible"><tspan x="48">50</tspan></text></g><g class="highcharts-tooltip"  style="padding:0;white-space:nowrap;" visibility="hidden"><rect rx="10" ry="10" fill="none" x="0.5" y="0.5" width="10" height="10" stroke-width="5"  stroke="black" stroke-opacity="0.049999999999999996" transform="translate(1, 1)"></rect><rect rx="10" ry="10" fill="none" x="0.5" y="0.5" width="10" height="10" stroke-width="3"  stroke="black" stroke-opacity="0.09999999999999999" transform="translate(1, 1)"></rect><rect rx="10" ry="10" fill="none" x="0.5" y="0.5" width="10" height="10" stroke-width="1"  stroke="black" stroke-opacity="0.15" transform="translate(1, 1)"></rect><rect rx="10" ry="10" fill="#FCFFC5" x="0.5" y="0.5" width="10" height="10" stroke-width="1"></rect><text x="5" y="18" style="font-family:'lucida grande', 'lucida sans unicode', verdana, arial, helvetica, sans-serif;font-size:12px;color:#333333;fill:#333333;" ></text></g><text x="790" y="295" style="font-family:'lucida grande', 'lucida sans unicode', verdana, arial, helvetica, sans-serif;font-size:10px;cursor:pointer;color:#909090;fill:#909090;" text-anchor="end" ><tspan x="790">phodal.com</tspan></text><g class="highcharts-tracker" ><g visibility="visible"  transform="translate(56,40)" clip-path="url(#highcharts-16)"><path fill="none" d="M 56.099999999999994 208.8 L 66.1 208.8 C 66.1 208.8 145.42 198.36 198.29999999999998 162.4 C 251.18 126.44 277.62 29 330.5 29 C 383.38 29 409.82 220.4 462.69999999999993 220.4 C 515.5799999999999 220.4 594.9 140.9 594.9 140.9 L 604.9 140.9"  stroke-linejoin="bevel" visibility="visible" stroke-opacity="0.000001" stroke="rgb(192,192,192)" stroke-width="22" style=""></path></g><g visibility="visible"  transform="translate(56,40)" clip-path="url(#highcharts-16)"><path fill="none" d="M 56.099999999999994 139.2 L 76.1 139.2"  stroke-linejoin="bevel" visibility="visible" stroke-opacity="0.000001" stroke="rgb(192,192,192)" stroke-width="22" style=""></path></g></g></svg>